<?xml version="1.0" encoding="utf-8"?>
<!-- Generator: Adobe Illustrator 25.3.0, SVG Export Plug-In . SVG Version: 6.00 Build 0)  -->
<svg version="1.1" id="Capa_1" xmlns="http://www.w3.org/2000/svg" xmlns:xlink="http://www.w3.org/1999/xlink" x="0px" y="0px"
	 viewBox="0 0 28.3 28.3" style="enable-background:new 0 0 28.3 28.3;" xml:space="preserve">
<style type="text/css">
	.st0{fill:#698D86;}
	.st1{fill:#C0E5D8;}
</style>
<g id="Grupo_40061" transform="translate(-425 -913)">
	<circle id="Elipse_67" class="st0" cx="439.1" cy="927.2" r="13.8"/>
	<g id="YO_LOGO" transform="translate(298.094 850.381)">
		<g id="LOGO" transform="translate(134.214 71)">
			<path id="Trazado_1" class="st1" d="M0,6.8l-3.1-5.3c-0.2-0.3-0.1-0.8,0.2-1c0.1-0.1,0.3-0.1,0.4-0.1c0.3,0,0.5,0.1,0.6,0.4
				l2.4,4.1C0.6,5.1,0.8,5.2,1,5.1C1.1,5,1.1,5,1.1,4.9l2.4-4.2c0.1-0.2,0.4-0.4,0.6-0.4h0c0.4,0,0.7,0.3,0.7,0.7
				c0,0.1,0,0.2-0.1,0.4L1.7,6.8C1.6,6.9,1.5,7,1.5,7.2v4.3c0,0.4-0.3,0.7-0.7,0.7h0c-0.4,0-0.7-0.3-0.7-0.7V7.2C0.1,7,0,6.9,0,6.8"
				/>
			<path id="Trazado_2" class="st1" d="M9.1,2c1.6-0.7,3.4-0.4,4.6,0.7C14,2.9,14.3,3,14.6,2.9l0,0c0.4-0.2,0.6-0.6,0.4-1
				c0-0.1-0.1-0.2-0.2-0.3c-2.6-2.1-6.5-1.7-8.6,0.9C5.4,3.4,5,4.5,4.8,5.7c0,0.4,0.3,0.8,0.7,0.8c0.1,0,0.2,0,0.4-0.1h0
				c0.3-0.1,0.4-0.4,0.5-0.6C6.5,4.2,7.6,2.7,9.1,2"/>
			<path id="Trazado_3" class="st1" d="M12.7,10.5c-1.5,0.7-3.3,0.4-4.6-0.7C7.8,9.6,7.5,9.6,7.3,9.7h0c-0.4,0.2-0.6,0.6-0.4,1
				c0,0.1,0.1,0.2,0.2,0.3c2.6,2.1,6.5,1.7,8.6-0.9c0.7-0.9,1.2-2,1.3-3.2c0-0.4-0.3-0.8-0.7-0.8c-0.1,0-0.2,0-0.4,0.1
				c-0.3,0.1-0.4,0.4-0.5,0.6C15.3,8.4,14.3,9.9,12.7,10.5"/>
			<path id="Trazado_4" class="st1" d="M16.1,4.9c-0.3,0.1-0.7,0-0.9-0.4c-0.1-0.3,0-0.7,0.4-0.9c0.3-0.1,0.7,0,0.9,0.4c0,0,0,0,0,0
				C16.6,4.3,16.5,4.7,16.1,4.9C16.1,4.8,16.1,4.8,16.1,4.9"/>
			<path id="Trazado_5" class="st1" d="M6.4,8.9C6.1,9,5.7,8.9,5.5,8.5c-0.1-0.3,0-0.7,0.4-0.9c0.3-0.1,0.7,0,0.9,0.4c0,0,0,0,0,0
				C6.9,8.4,6.8,8.7,6.4,8.9C6.4,8.9,6.4,8.9,6.4,8.9"/>
			<path id="Trazado_6" class="st1" d="M13.1-0.4c-0.2,0-0.4-0.1-0.5-0.2l-1.2-1.2c-0.3-0.3-0.7-0.3-0.9,0c0,0,0,0,0,0L9.3-0.6
				C9-0.4,8.6-0.3,8.3-0.5C7.9-0.8,7.8-1.2,8.1-1.6c0,0,0-0.1,0.1-0.1l1.7-1.7c0.2-0.2,0.5-0.4,0.8-0.4c0.5-0.1,1,0.1,1.3,0.4
				l1.7,1.7c0.3,0.3,0.3,0.7,0.1,1C13.6-0.5,13.3-0.4,13.1-0.4"/>
		</g>
	</g>
</g>
</svg>
