<?xml version="1.0" encoding="utf-8"?>
<!-- Generator: Adobe Illustrator 25.3.0, SVG Export Plug-In . SVG Version: 6.00 Build 0)  -->
<svg version="1.1" id="Capa_1" xmlns="http://www.w3.org/2000/svg" xmlns:xlink="http://www.w3.org/1999/xlink" x="0px" y="0px"
	 viewBox="0 -2 17.5 11.5	" style="transform: rotate(-90deg); 	enable-background:new 0 0 17.5 11.5;" xml:space="preserve">
<style type="text/css">
	.st0{fill:#698D86;}
</style>
<path id="Trazado_78086"  class="st0" d="M14.4,4.9c0-0.1,0-0.1-0.1-0.2L11,1.3c-0.1-0.1-0.3-0.1-0.4,0c-0.1,0.1-0.1,0.3,0,0.4l3,3
	H1.3C1.1,4.6,1,4.7,1,4.9C1,5,1.1,5.1,1.3,5.1h12.2l-2.9,2.9c-0.1,0.1-0.1,0.3,0,0.4c0,0,0.1,0.1,0.2,0.1h0c0.1,0,0.1,0,0.2-0.1
	l3.3-3.3C14.4,5,14.4,5,14.4,4.9L14.4,4.9L14.4,4.9z"/>
</svg>
